<?xml version="1.0"?>
<svg xmlns="http://www.w3.org/2000/svg" xmlns:xlink="http://www.w3.org/1999/xlink" xmlns:svgjs="http://svgjs.com/svgjs" version="1.1" width="512" height="512" x="0" y="0" viewBox="0 0 74 74" style="enable-background:new 0 0 512 512" xml:space="preserve" class=""><g><path xmlns="http://www.w3.org/2000/svg" d="m45.968 16.557h20.577a4.456 4.456 0 0 1 4.455 4.466v39.077a4.453 4.453 0 0 1 -4.455 4.455h-59.09a4.453 4.453 0 0 1 -4.455-4.455v-39.077a4.456 4.456 0 0 1 4.455-4.466h20.577" fill="#eeefee" data-original="#eeefee" style=""/><path xmlns="http://www.w3.org/2000/svg" d="m71 21.02v39.08a4.453 4.453 0 0 1 -4.45 4.45h-59.1a4.463 4.463 0 0 1 -4.43-3.98 3.438 3.438 0 0 0 .56.04h59.09a4.447 4.447 0 0 0 4.45-4.45v-39.08c0-.16-.01-.33-.02-.49a4.463 4.463 0 0 1 3.9 4.43z" fill="#e1e6e9" data-original="#e1e6e9" style="" class=""/><rect xmlns="http://www.w3.org/2000/svg" fill="#a1a3a9" height="9.534" rx="1.375" width="17.928" x="28.036" y="10.875" data-original="#9297ab" style="" class=""/><path xmlns="http://www.w3.org/2000/svg" d="m45.96 12.25v6.78a1.374 1.374 0 0 1 -1.37 1.38h-.81v-6a1.383 1.383 0 0 0 -1.38-1.38h-14.36v-.78a1.366 1.366 0 0 1 1.37-1.37h15.18a1.366 1.366 0 0 1 1.37 1.37z" fill="#91939f" data-original="#84879c" style="" class=""/><circle xmlns="http://www.w3.org/2000/svg" cx="22.698" cy="29.314" fill="#f7941e" r="5.904" data-original="#89c5cd" style="" class=""/><path xmlns="http://www.w3.org/2000/svg" d="m35.125 47.316a12.432 12.432 0 0 0 -24.854 0z" fill="#f7941e" data-original="#89c5cd" style="" class=""/><path xmlns="http://www.w3.org/2000/svg" d="m28.6 29.31a5.9 5.9 0 0 1 -4.51 5.74 5.9 5.9 0 0 0 -3.83-10.39 5.45 5.45 0 0 0 -1.41.18 5.9 5.9 0 0 1 9.75 4.47z" fill="#c97a1c" data-original="#6eaaad" style="" class=""/><path xmlns="http://www.w3.org/2000/svg" d="m35.12 47.32h-2.53a12.431 12.431 0 0 0 -16.77-10.03 12.435 12.435 0 0 1 19.3 10.03z" fill="#c97a1c" data-original="#6eaaad" style="" class=""/><g xmlns="http://www.w3.org/2000/svg" fill="#323c6b"><path d="m63.729 27.874h-22.068a.5.5 0 0 1 0-1h22.068a.5.5 0 0 1 0 1z" fill="#000000" data-original="#323c6b" style="" class=""/><path d="m63.729 37.115h-22.068a.5.5 0 0 1 0-1h22.068a.5.5 0 0 1 0 1z" fill="#000000" data-original="#323c6b" style="" class=""/><path d="m63.729 46.356h-22.068a.5.5 0 0 1 0-1h22.068a.5.5 0 0 1 0 1z" fill="#000000" data-original="#323c6b" style="" class=""/><path d="m63.729 55.6h-53.458a.5.5 0 0 1 0-1h53.458a.5.5 0 0 1 0 1z" fill="#000000" data-original="#323c6b" style="" class=""/><path d="m66.545 65.052h-59.09a4.96 4.96 0 0 1 -4.955-4.952v-39.077a4.966 4.966 0 0 1 4.955-4.966h20.577a.5.5 0 0 1 0 1h-20.577a3.965 3.965 0 0 0 -3.955 3.966v39.077a3.959 3.959 0 0 0 3.955 3.955h59.09a3.959 3.959 0 0 0 3.955-3.955v-39.077a3.965 3.965 0 0 0 -3.955-3.966h-20.577a.5.5 0 0 1 0-1h20.577a4.966 4.966 0 0 1 4.955 4.966v39.077a4.96 4.96 0 0 1 -4.955 4.952z" fill="#000000" data-original="#323c6b" style="" class=""/><path d="m22.7 35.717a6.4 6.4 0 1 1 6.4-6.4 6.411 6.411 0 0 1 -6.4 6.4zm0-11.807a5.4 5.4 0 1 0 5.4 5.4 5.41 5.41 0 0 0 -5.4-5.4z" fill="#000000" data-original="#323c6b" style="" class=""/><path d="m35.125 47.816h-24.854a.5.5 0 0 1 -.5-.514 12.932 12.932 0 0 1 25.854 0 .5.5 0 0 1 -.5.514zm-24.33-1h23.805a11.932 11.932 0 0 0 -23.806 0z" fill="#000000" data-original="#323c6b" style="" class=""/><path d="m44.589 20.909h-15.178a1.877 1.877 0 0 1 -1.875-1.875v-6.784a1.877 1.877 0 0 1 1.875-1.875h15.178a1.877 1.877 0 0 1 1.875 1.875v6.784a1.877 1.877 0 0 1 -1.875 1.875zm-15.178-9.534a.876.876 0 0 0 -.875.875v6.784a.876.876 0 0 0 .875.875h15.178a.876.876 0 0 0 .875-.875v-6.784a.876.876 0 0 0 -.875-.875z" fill="#000000" data-original="#323c6b" style="" class=""/><path d="m64.188 68.052h-9.375a.5.5 0 0 1 0-1h9.375a.5.5 0 0 1 0 1z" fill="#000000" data-original="#323c6b" style="" class=""/><path d="m.914 17.958a.5.5 0 0 1 -.438-.739 7.955 7.955 0 0 1 6.979-4.163h1.628a.5.5 0 1 1 0 1h-1.628a6.955 6.955 0 0 0 -6.1 3.641.5.5 0 0 1 -.441.261z" fill="#000000" data-original="#323c6b" style="" class=""/><path d="m12.333 14.057h-.625a.5.5 0 0 1 0-1h.625a.5.5 0 0 1 0 1z" fill="#000000" data-original="#323c6b" style="" class=""/><path d="m52.375 68.052h-.937a.5.5 0 0 1 0-1h.938a.5.5 0 0 1 0 1z" fill="#000000" data-original="#323c6b" style="" class=""/></g></g></svg>
