<?xml version="1.0"?>
<svg xmlns="http://www.w3.org/2000/svg" xmlns:xlink="http://www.w3.org/1999/xlink" xmlns:svgjs="http://svgjs.com/svgjs" version="1.1" width="512" height="512" x="0" y="0" viewBox="0 0 64 64" style="enable-background:new 0 0 512 512" xml:space="preserve" class=""><g><g xmlns="http://www.w3.org/2000/svg" id="Credit_card-2" data-name="Credit card"><path d="m60 21h-42v11a3 3 0 0 0 3 3h36a3 3 0 0 0 3-3zm-29 7h1a1 1 0 0 1 0 2h-1a1 1 0 0 1 0-2zm-4 0h1a1 1 0 0 1 0 2h-1a1 1 0 0 1 0-2zm-4 0h1a1 1 0 0 1 0 2h-1a1 1 0 0 1 0-2zm13 5h-13a1 1 0 0 1 0-2h13a1 1 0 0 1 0 2zm0-3h-1a1 1 0 0 1 0-2h1a1 1 0 0 1 0 2zm18 3a3.988 3.988 0 0 1 -2.51-.894 4 4 0 1 1 0-6.212 4 4 0 1 1 2.51 7.106z" fill="#f7941e" data-original="#000000" style="" class=""/><path d="m54 27a1.968 1.968 0 0 0 -1.3.486 3.946 3.946 0 0 1 0 3.028 1.968 1.968 0 0 0 1.3.486 2 2 0 0 0 0-4z" fill="#f7941e" data-original="#000000" style="" class=""/><circle cx="49" cy="29" r="2" fill="#f7941e" data-original="#000000" style="" class=""/><path d="m18 17h42v2h-42z" fill="#f7941e" data-original="#000000" style="" class=""/><path d="m60 14a3 3 0 0 0 -3-3h-36a3 3 0 0 0 -3 3v1h42z" fill="#f7941e" data-original="#000000" style="" class=""/><path d="m31.19 47.887 9.664 1.88a2.024 2.024 0 0 0 2.518-1.4 2 2 0 0 0 .062-.684.938.938 0 0 1 -.012-.1 2.007 2.007 0 0 0 -1.465-1.661l-13.523-3.1a10.954 10.954 0 0 0 -6.547.508l-5.8 2.321a5 5 0 0 1 -1.858.349h-.229v12h.6q.448 0 .9.044l16.894 1.69a7.06 7.06 0 0 0 4.394-1.021l22.604-14.062a2.043 2.043 0 0 0 1.028-1.761 2 2 0 0 0 -3-1.723l-11.986 6.922a4.026 4.026 0 0 1 -.13.8 4 4 0 0 1 -4.9 2.828l-9.6-1.864a1 1 0 0 1 .382-1.963z" fill="#f7941e" data-original="#000000" style="" class=""/><path d="m12 60v-17h-8v17zm-5-14a1 1 0 0 1 2 0v1a1 1 0 0 1 -2 0z" fill="#f7941e" data-original="#000000" style="" class=""/></g></g></svg>
