<?xml version="1.0"?>
<svg xmlns="http://www.w3.org/2000/svg" xmlns:xlink="http://www.w3.org/1999/xlink" xmlns:svgjs="http://svgjs.com/svgjs" version="1.1" width="512" height="512" x="0" y="0" viewBox="0 0 448 447" style="enable-background:new 0 0 512 512" xml:space="preserve"><g><path xmlns="http://www.w3.org/2000/svg" d="m40 140.621094c0-8.835938 7.164062-16 16-16h165.679688l-11.070313-10.089844c-1.664063-1.515625-2.609375-3.660156-2.609375-5.910156h-160c-13.253906 0-24 10.742187-24 24v24h16zm0 0" fill="#707070" data-original="#000000" style=""/><path xmlns="http://www.w3.org/2000/svg" d="m227.878906 108.621094 20.800782 18.925781c2.3125 2.105469 3.183593 5.367187 2.230468 8.34375l-8.511718 26.792969 27.464843 6.007812c3.046875.671875 5.425781 3.050782 6.097657 6.097656l6.007812 27.464844 26.792969-8.53125c.773437-.246094 1.582031-.375 2.398437-.375 2.25 0 4.394532.945313 5.910156 2.609375l18.929688 20.78125 18.929688-20.796875c2.109374-2.300781 5.363281-3.171875 8.34375-2.234375l26.789062 8.511719 6.007812-27.460938c.671876-3.046874 3.050782-5.429687 6.097657-6.097656l27.464843-6.007812-8.527343-26.792969c-.953125-2.976563-.078125-6.238281 2.230469-8.34375l20.785156-18.894531-20.800782-18.929688c-2.3125-2.105468-3.183593-5.363281-2.230468-8.34375l8.511718-26.792968-27.464843-6.007813c-3.046875-.667969-5.425781-3.046875-6.097657-6.09375l-5.976562-27.433594-26.789062 8.496094c-2.980469.949219-6.238282.078125-8.34375-2.230469l-18.929688-20.785156-18.929688 20.800781c-2.105468 2.308594-5.363281 3.179688-8.34375 2.230469l-26.789062-8.511719-6.007812 27.464844c-.671876 3.046875-3.050782 5.425781-6.097657 6.09375l-27.464843 6.011719 8.527343 26.789062c.953125 2.980469.078125 6.238282-2.230469 8.34375zm172.121094 24c0 13.253906-10.746094 24-24 24s-24-10.746094-24-24c0-13.257813 10.746094-24 24-24s24 10.742187 24 24zm-29.65625-69.65625 11.3125 11.3125-80 80-11.3125-11.3125zm-74.34375-2.34375c13.253906 0 24 10.742187 24 24 0 13.253906-10.746094 24-24 24s-24-10.746094-24-24c0-13.257813 10.746094-24 24-24zm0 0" fill="#707070" data-original="#000000" style=""/><path xmlns="http://www.w3.org/2000/svg" d="m304 252.621094h88v-32.953125l-28.695312-9.144531-21.394532 23.488281c-1.515625 1.664062-3.660156 2.609375-5.910156 2.609375s-4.394531-.945313-5.910156-2.609375l-21.394532-23.488281-30.296874 9.640624c-2.144532.683594-4.476563.433594-6.429688-.691406-1.949219-1.125-3.335938-3.019531-3.816406-5.21875l-6.785156-31.035156-30.96875-6.78125c-2.199219-.484375-4.09375-1.867188-5.21875-3.820312-1.125-1.949219-1.375-4.285157-.691407-6.429688l8.113281-25.566406h-176.601562v16h56c4.417969 0 8 3.582031 8 8v64c0 4.417968-3.582031 8-8 8h-56v160h119.054688c8.539062-.046875 16.355468 4.773437 20.144531 12.421875 1.082031 2.203125 3.332031 3.59375 5.785156 3.578125h46.113281c2.453125.015625 4.699219-1.375 5.78125-3.578125 3.78125-7.621094 11.558594-12.4375 20.066406-12.421875h119.054688v-32h-88c-4.417969 0-8-3.582032-8-8v-96c0-4.417969 3.582031-8 8-8zm-73.863281-69.535156 11.542969 11.070312-17.601563 18.398438-11.542969-11.078126zm8.34375 146.230468c-1.507813 2.074219-3.914063 3.304688-6.480469 3.304688h-.136719l-86.992187-1.410156 16.5625 38.234374c1.078125 2.472657.835937 5.328126-.644532 7.585938-1.480468 2.257812-4 3.617188-6.699218 3.613281h-31.472656c-3.054688.011719-5.847657-1.71875-7.203126-4.457031l-16.660156-33.71875c-11.691406-1.449219-21.488281-9.519531-25.152344-20.710938-4.699218-13.808593.992188-29.007812 13.597657-36.335937l19.015625-11.296875 78.082031-77.273438c1.953125-1.933593 4.765625-2.730468 7.445313-2.105468 2.679687.625 4.851562 2.585937 5.746093 5.1875l42.105469 122.078125c.839844 2.46875.425781 5.195312-1.113281 7.304687zm.046875-59.535156-5.246094-15.113281 26.453125-9.246094 5.25 15.109375zm41.472656 54.839844h-24v-16h24zm0 0" fill="#707070" data-original="#000000" style=""/><path xmlns="http://www.w3.org/2000/svg" d="m408 252.621094h16v-72.328125l-13.398438 2.925781-2.601562 11.898438zm0 0" fill="#707070" data-original="#000000" style=""/><path xmlns="http://www.w3.org/2000/svg" d="m117.070312 339.628906c-.503906.246094-1.046874.335938-1.550781.558594l12.066407 24.433594h14.316406l-13.292969-30.707032zm0 0" fill="#707070" data-original="#000000" style=""/><path xmlns="http://www.w3.org/2000/svg" d="m104 172.621094h-104v48h104zm-72 32h-16v-16h16zm56 0h-40v-16h40zm0 0" fill="#707070" data-original="#000000" style=""/><path xmlns="http://www.w3.org/2000/svg" d="m107.832031 291.746094-12.496093 7.417968c-4.875 2.855469-7.703126 8.234376-7.292969 13.871094.410156 5.636719 3.988281 10.546875 9.230469 12.664063 4.09375 1.707031 8.726562 1.554687 12.703124-.414063l11.847657-5.863281zm0 0" fill="#707070" data-original="#000000" style=""/><path xmlns="http://www.w3.org/2000/svg" d="m312 268.621094v80h136v-80zm16 16h32v16h-32zm104 48h-104v-16h104zm0-32h-56v-16h56zm0 0" fill="#707070" data-original="#000000" style=""/><path xmlns="http://www.w3.org/2000/svg" d="m24 236.621094h16v160h-16zm0 0" fill="#707070" data-original="#000000" style=""/><path xmlns="http://www.w3.org/2000/svg" d="m384 132.621094c0 4.417968-3.582031 8-8 8s-8-3.582032-8-8c0-4.417969 3.582031-8 8-8s8 3.582031 8 8zm0 0" fill="#707070" data-original="#000000" style=""/><path xmlns="http://www.w3.org/2000/svg" d="m120.886719 282.085938 16.671875 33.007812 83.152344 1.34375-34.230469-99.265625zm0 0" fill="#707070" data-original="#000000" style=""/><path xmlns="http://www.w3.org/2000/svg" d="m304 84.621094c0 4.417968-3.582031 8-8 8s-8-3.582032-8-8c0-4.417969 3.582031-8 8-8s8 3.582031 8 8zm0 0" fill="#707070" data-original="#000000" style=""/><path xmlns="http://www.w3.org/2000/svg" d="m267.199219 416.195312c-3.789063 7.648438-11.605469 12.46875-20.144531 12.425782h-46.109376c-8.523437.027344-16.320312-4.789063-20.105468-12.425782-1.082032-2.203124-3.328125-3.589843-5.785156-3.574218h-175.054688v16c0 8.835937 7.164062 16 16 16h416c8.835938 0 16-7.164063 16-16v-16h-175.054688c-2.441406 0-4.667968 1.386718-5.746093 3.574218zm0 0" fill="#707070" data-original="#000000" style=""/><path xmlns="http://www.w3.org/2000/svg" d="m408 364.621094h16v32h-16zm0 0" fill="#707070" data-original="#000000" style=""/></g></svg>
