<?xml version="1.0"?>
<svg xmlns="http://www.w3.org/2000/svg" id="Layer_1" enable-background="new 0 0 464.036 464.036" height="512px" viewBox="0 0 464.036 464.036" width="512px" class=""><g><path d="m440.018 169.638v262.38c0 17.67-14.33 32-32 32h-352c-17.67 0-32-14.33-32-32 0-248.047-.021-201.581.07-262.38z" fill="#d6f4fc" data-original="#D6F4FC" class="" style="fill:#FFC57F" data-old_color="#d6f4fc"/><path d="m440.018 169.638v60.598c0 13.114-10.512 23.978-23.626 24.031-.146.001-368.493.001-368.759 0-13.11-.057-23.615-10.921-23.615-24.031 0-17.484-.013-5.22.07-60.598z" fill="#bdeffc" data-original="#BDEFFC" class="" style="fill:#FEBC6B" data-old_color="#bdeffc"/><path d="m313.018 321.018v143h-162v-143c0-17.67 14.33-32 32-32h98c17.67 0 32 14.33 32 32z" fill="#e8f8fc" data-original="#E8F8FC" class="active-path" style="fill:#E3E9ED" data-old_color="#e8f8fc"/><path d="m464.018 169.638c0 32.017-25.963 58-58 58-32.03 0-58-25.97-58-58 0 32.03-25.97 58-58 58s-58-25.97-58-58c0 32.03-25.97 58-58 58s-58-25.97-58-58c-.05 31.82-26.24 58-58 58-31.721 0-57.95-26.147-58-58 0-50.408-.138-47.306.35-49.62.48-2.271-2.847 5.77 47.47-110.36 2.54-5.85 8.31-9.64 14.68-9.64h339c6.37 0 12.14 3.79 14.68 9.64 50.354 116.216 46.989 108.087 47.47 110.36.487 2.31.35-.842.35 49.62z" fill="#ff6d7a" data-original="#FF6D7A" class="" style="fill:#2B2864" data-old_color="#ff6d7a"/><path d="m464.018 169.638c0 32.017-25.963 58-58 58-32.03 0-58-25.97-58-58 0 32.03-25.97 58-58 58s-58-25.97-58-58c0 32.03-25.97 58-58 58s-58-25.97-58-58c-.05 31.82-26.24 58-58 58-31.721 0-57.95-26.147-58-58v-46.3c0-1.12.12-2.23.35-3.32h463.3c.487 2.31.35-.842.35 49.62z" fill="#fe4f60" data-original="#FE4F60" class="" style="fill:#27245B" data-old_color="#fe4f60"/><path d="m224.018 289.018h16v175h-16z" fill="#bdeffc" data-original="#BDEFFC" class="" style="fill:#FEBC6B" data-old_color="#bdeffc"/><path d="m397.196 42.765c-101.577-13.98-204.092 3.951-287.008 66.429-9.333 7.033-20.709 10.823-32.395 10.823h-77.425c.48-2.271-2.847 5.77 47.47-110.36 2.54-5.85 8.31-9.64 14.68-9.64h339c6.376 0 12.143 3.786 14.678 9.636l2.229 5.142c6.246 14.413-5.668 30.112-21.229 27.97z" fill="#ff7c87" data-original="#FF7C87" class="" style="fill:#322E6C" data-old_color="#ff7c87"/></g> </svg>
